#!OML:ASF I:\golf\golf\golf 2\Subject 1\2002-09-07\Subject1.ASF
:FULLY-SPECIFIED
:DEGREES
260
root -11.5635 17.9714 6.65043 -100.351 85.3824 -117.241
lowerback 4.55304 2.0219 -1.04862
upperback 3.96884 2.78838 4.6269
thorax 1.26096 1.38509 5.27834
lowerneck -11.5522 -2.64968 1.39074
upperneck 41.8713 -0.700594 -2.73609
head 17.2242 0.301632 -1.39232
rclavicle -1.66979e-014 2.8625e-014
rhumerus -8.24527 11.8373 -101.154
rradius 31.1072
rwrist -42.9801
rhand -27.2094 -15.8312
rfingers 7.12502
rthumb -0.622343 -45.8101
lclavicle -1.66979e-014 2.8625e-014
lhumerus -12.3496 -45.6484 108.176
lradius 36.6388
lwrist 52.3663
lhand -7.38941 59.4276
lfingers 7.12502
lthumb -161.504 268.568
rfemur -30.3191 -1.84826 16.3449
rtibia 26.2222
rfoot -6.91311 -7.09457
rtoes -0.723959
lfemur -29.9247 3.45643 -8.27343
ltibia 25.139
lfoot -9.04836 -2.13185
ltoes -19.887
261
root -11.5625 17.9715 6.65043 -100.516 85.3737 -117.382
lowerback 4.59397 2.02231 -1.06858
upperback 3.96812 2.78955 4.64456
thorax 1.23562 1.38582 5.30652
lowerneck -11.5516 -2.6628 1.34153
upperneck 41.882 -0.714358 -2.71044
head 17.2306 0.292339 -1.37409
rclavicle 5.96354e-015 -2.46493e-014
rhumerus -8.24546 11.7974 -101.125
rradius 31.1187
rwrist -43.0343
rhand -27.2249 -15.8913
rfingers 7.12502
rthumb -0.637331 -45.8701
lclavicle 5.96354e-015 -2.46493e-014
lhumerus -12.3658 -45.7352 108.188
lradius 36.6441
lwrist 52.4356
lhand -7.47208 59.47
lfingers 7.12502
lthumb -161.583 268.618
rfemur -30.2864 -1.90539 16.3674
rtibia 26.2162
rfoot -6.91519 -7.04992
rtoes -0.487218
lfemur -29.9016 3.44191 -8.26943
ltibia 25.1394
lfoot -9.00502 -2.10952
ltoes -19.822
262
root -11.5619 17.9723 6.6501 -100.256 85.3668 -117.102
lowerback 4.65264 2.01321 -1.07416
upperback 3.95746 2.77839 4.64944
thorax 1.19253 1.38098 5.31262
lowerneck -11.5595 -2.66138 1.3167
upperneck 41.9031 -0.701602 -2.71269
head 17.2457 0.293786 -1.3689
rclavicle -3.81667e-014 -1.27222e-014
rhumerus -8.26058 11.8197 -101.146
rradius 31.1276
rwrist -43.0418
rhand -27.2307 -15.9436
rfingers 7.12502
rthumb -0.642942 -45.9224
lclavicle -3.81667e-014 -1.27222e-014
lhumerus -12.3889 -45.7285 108.164
lradius 36.6607
lwrist 52.4842
lhand -7.53932 59.3912
lfingers 7.12502
lthumb -161.648 268.545
rfemur -30.2588 -1.87095 16.3736
rtibia 26.2183
rfoot -6.93178 -7.03145
rtoes -0.219986
lfemur -29.8563 3.42438 -8.23086
ltibia 25.1274
lfoot -8.98027 -2.13763
ltoes -19.3998
263
root -11.5615 17.973 6.64946 -100.29 85.4337 -117.135
lowerback 4.65594 2.00596 -1.12754
upperback 3.96186 2.76565 4.61323
thorax 1.19584 1.37318 5.3055
lowerneck -11.5564 -2.63815 1.37003
upperneck 41.8798 -0.67485 -2.74153
head 17.2314 0.307737 -1.38703
rclavicle -2.78299e-015 -3.49861e-014
rhumerus -8.26798 11.8228 -101.193
rradius 31.158
rwrist -43.0453
rhand -27.0828 -15.8509
rfingers 7.12502
rthumb -0.500077 -45.83
lclavicle -2.78299e-015 -3.49861e-014
lhumerus -12.3865 -45.6627 108.122
lradius 36.6593
lwrist 52.4656
lhand -7.57164 59.2301
lfingers 7.12502
lthumb -161.679 268.387
rfemur -30.2519 -1.83619 16.2876
rtibia 26.2145
rfoot -6.93019 -7.0382
rtoes 0.0398076
lfemur -29.8296 3.40046 -8.28828
ltibia 25.1113
lfoot -8.98219 -2.14637
ltoes -19.1216
264
root -11.5611 17.9728 6.64868 -100.578 85.5172 -117.435
lowerback 4.63125 2.00282 -1.19082
upperback 3.98692 2.7573 4.56532
thorax 1.23582 1.36662 5.29329
lowerneck -11.5987 -2.60721 1.4639
upperneck 41.8542 -0.650145 -2.77573
head 17.227 0.325531 -1.41604
rclavicle -3.33958e-014 -2.8625e-014
rhumerus -8.2419 11.8782 -101.225
rradius 31.2121
rwrist -43.0883
rhand -26.9898 -15.77
rfingers 7.12502
rthumb -0.410205 -45.7493
lclavicle -3.33958e-014 -2.8625e-014
lhumerus -12.329 -45.7219 108.041
lradius 36.6687
lwrist 52.503
lhand -7.63692 59.1702
lfingers 7.12502
lthumb -161.742 268.333
rfemur -30.2617 -1.86136 16.1889
rtibia 26.2067
rfoot -6.93025 -7.03158
rtoes 0.0112123
lfemur -29.8367 3.38939 -8.40176
ltibia 25.0923
lfoot -8.98873 -2.10024
ltoes -19.5947
265
root -11.5609 17.9723 6.64812 -100.631 85.5161 -117.489
lowerback 4.65113 1.98542 -1.20922
upperback 4.00252 2.7336 4.55903
thorax 1.24279 1.3542 5.29789
lowerneck -11.6663 -2.57963 1.53637
upperneck 41.8615 -0.619402 -2.81527
head 17.2487 0.342468 -1.44342
rclavicle 3.29983e-014 4.21423e-014
rhumerus -8.21257 11.9534 -101.254
rradius 31.2259
rwrist -43.0858
rhand -27.0184 -15.8161
rfingers 7.12502
rthumb -0.437826 -45.7954
lclavicle 3.29983e-014 4.21423e-014
lhumerus -12.2654 -45.7555 107.953
lradius 36.6922
lwrist 52.5588
lhand -7.62802 59.1801
lfingers 7.12502
lthumb -161.733 268.342
rfemur -30.2607 -1.82943 16.173
rtibia 26.2083
rfoot -6.9333 -7.08352
rtoes -0.20279
lfemur -29.8363 3.43841 -8.42874
ltibia 25.0681
lfoot -8.98306 -2.13301
ltoes -19.6399
266
root -11.5604 17.9724 6.64815 -100.394 85.5046 -117.272
lowerback 4.64708 1.99797 -1.21002
upperback 3.98674 2.75021 4.55932
thorax 1.22697 1.3628 5.29759
lowerneck -11.654 -2.57977 1.53991
upperneck 41.8499 -0.629935 -2.79534
head 17.2386 0.341187 -1.43641
rclavicle -3.97569e-015 -1.74931e-014
rhumerus -8.21571 11.8715 -101.253
rradius 31.2214
rwrist -43.0424
rhand -27.0224 -15.8743
rfingers 7.12502
rthumb -0.441725 -45.8536
lclavicle -3.97569e-015 -1.74931e-014
lhumerus -12.2922 -45.7032 107.991
lradius 36.6874
lwrist 52.4781
lhand -7.53239 59.0943
lfingers 7.12502
lthumb -161.641 268.248
rfemur -30.2833 -1.76817 16.1791
rtibia 26.2157
rfoot -6.95236 -7.13999
rtoes -0.0263517
lfemur -29.8386 3.50133 -8.42343
ltibia 25.037
lfoot -8.96937 -2.19904
ltoes -19.3206
267
root -11.5598 17.973 6.64815 -100.156 85.5298 -117.08
lowerback 4.5791 2.02968 -1.23515
upperback 3.97575 2.79056 4.56362
thorax 1.24813 1.38195 5.317
lowerneck -11.6048 -2.57666 1.49933
upperneck 41.812 -0.631538 -2.75108
head 17.2049 0.339976 -1.40768
rclavicle -1.27222e-014 4.77083e-015
rhumerus -8.21405 11.7854 -101.198
rradius 31.2284
rwrist -43.0012
rhand -27.0125 -15.9048
rfingers 7.12502
rthumb -0.432171 -45.8841
lclavicle -1.27222e-014 4.77083e-015
lhumerus -12.2981 -45.6897 108.066
lradius 36.6526
lwrist 52.4264
lhand -7.41773 58.8862
lfingers 7.12502
lthumb -161.531 268.029
rfemur -30.3342 -1.79525 16.1732
rtibia 26.2093
rfoot -6.94341 -7.0961
rtoes -0.602253
lfemur -29.8619 3.48829 -8.43607
ltibia 25.0046
lfoot -8.97618 -2.17167
ltoes -19.6672
268
root -11.5598 17.9735 6.64788 -100.518 85.5926 -117.449
lowerback 4.55439 2.02455 -1.3375
upperback 4.00067 2.77993 4.57042
thorax 1.28414 1.37354 5.38464
lowerneck -11.6097 -2.55485 1.50396
upperneck 41.7733 -0.597559 -2.77294
head 17.1851 0.349552 -1.41241
rclavicle 1.70955e-014 3.65764e-014
rhumerus -8.1692 11.8168 -101.15
rradius 31.2247
rwrist -42.9663
rhand -26.9341 -15.8682
rfingers 7.12502
rthumb -0.356476 -45.8477
lclavicle 1.70955e-014 3.65764e-014
lhumerus -12.201 -45.7039 108.03
lradius 36.6389
lwrist 52.5003
lhand -7.42905 58.8565
lfingers 7.12502
lthumb -161.542 268.001
rfemur -30.3297 -1.80995 16.0954
rtibia 26.1908
rfoot -6.87516 -7.0927
rtoes -1.35775
lfemur -29.8519 3.40887 -8.49543
ltibia 24.9759
lfoot -8.97912 -2.11309
ltoes -20.0776
269
root -11.5603 17.9747 6.64749 -101.039 85.5986 -117.964
lowerback 4.58132 2.00265 -1.40085
upperback 4.01672 2.74957 4.59199
thorax 1.28529 1.35693 5.44416
lowerneck -11.6467 -2.55407 1.50006
upperneck 41.7615 -0.590742 -2.79947
head 17.1881 0.346382 -1.42324
rclavicle 1.39149e-014 1.19271e-014
rhumerus -8.13113 11.8394 -101.115
rradius 31.2087
rwrist -42.9737
rhand -26.8594 -15.7561
rfingers 7.12502
rthumb -0.284308 -45.7357
lclavicle 1.39149e-014 1.19271e-014
lhumerus -12.1248 -45.6507 108.004
lradius 36.6361
lwrist 52.4731
lhand -7.47502 58.9683
lfingers 7.12502
lthumb -161.586 268.117
rfemur -30.3056 -1.75048 16.0449
rtibia 26.1706
rfoot -6.85925 -7.17792
rtoes -0.555792
lfemur -29.8437 3.34564 -8.50755
ltibia 24.9559
lfoot -8.94608 -2.08479
ltoes -19.7687
270
root -11.5605 17.9768 6.6473 -101.051 85.5724 -118.006
lowerback 4.57167 1.99268 -1.4238
upperback 4.01122 2.73634 4.62793
thorax 1.28383 1.34987 5.49585
lowerneck -11.6596 -2.56574 1.46973
upperneck 41.7677 -0.585555 -2.83373
head 17.1954 0.339109 -1.43275
rclavicle -5.56597e-015 -2.38542e-015
rhumerus -8.15495 11.9123 -101.045
rradius 31.248
rwrist -43.0087
rhand -26.8304 -15.698
rfingers 7.12502
rthumb -0.256281 -45.6776
lclavicle -5.56597e-015 -2.38542e-015
lhumerus -12.0921 -45.5437 108.042
lradius 36.5965
lwrist 52.3591
lhand -7.48608 58.9888
lfingers 7.12502
lthumb -161.597 268.138
rfemur -30.3272 -1.71704 16.0581
rtibia 26.1509
rfoot -6.86818 -7.19561
rtoes -0.0557016
lfemur -29.8703 3.33291 -8.47441
ltibia 24.9406
lfoot -8.91112 -2.08451
ltoes -19.159
271
root -11.5602 17.9788 6.64707 -100.494 85.5669 -117.496
lowerback 4.51328 2.01145 -1.40507
upperback 4.00549 2.76054 4.60707
thorax 1.3096 1.36176 5.46433
lowerneck -11.6785 -2.5742 1.54423
upperneck 41.7994 -0.598118 -2.87816
head 17.2165 0.34106 -1.4693
rclavicle 2.8625e-014 5.1684e-014
rhumerus -8.18604 11.9541 -101.019
rradius 31.3267
rwrist -43.0714
rhand -26.7879 -15.7303
rfingers 7.12502
rthumb -0.215225 -45.71
lclavicle 2.8625e-014 5.1684e-014
lhumerus -12.0845 -45.5894 108.028
lradius 36.586
lwrist 52.3667
lhand -7.58016 58.9628
lfingers 7.12502
lthumb -161.687 268.121
rfemur -30.3724 -1.70596 16.0882
rtibia 26.1271
rfoot -6.84235 -7.15226
rtoes -0.412499
lfemur -29.905 3.37152 -8.4527
ltibia 24.9298
lfoot -8.89925 -2.08877
ltoes -19.162
272
root -11.5601 17.9788 6.64628 -99.8899 85.5603 -116.895
lowerback 4.49892 2.04357 -1.32184
upperback 4.01816 2.80436 4.54578
thorax 1.33246 1.38504 5.3516
lowerneck -11.7254 -2.57922 1.66022
upperneck 41.8278 -0.642424 -2.87183
head 17.2416 0.342575 -1.49617
rclavicle -1.23246e-014 3.97569e-014
rhumerus -8.13186 11.7972 -101.064
rradius 31.2975
rwrist -43.0707
rhand -26.8125 -15.743
rfingers 7.12502
rthumb -0.238998 -45.7226
lclavicle -1.23246e-014 3.97569e-014
lhumerus -12.0759 -45.7447 107.964
lradius 36.6079
lwrist 52.3781
lhand -7.54066 58.941
lfingers 7.12502
lthumb -161.649 268.095
rfemur -30.3766 -1.67848 16.1193
rtibia 26.1161
rfoot -6.83611 -7.16015
rtoes -0.471037
lfemur -29.8886 3.39955 -8.4307
ltibia 24.9201
lfoot -8.90299 -2.06404
ltoes -19.3519
273
root -11.5597 17.9785 6.64588 -99.5915 85.5491 -116.582
lowerback 4.50156 2.04441 -1.32144
upperback 4.0357 2.806 4.56135
thorax 1.34831 1.38559 5.36812
lowerneck -11.7545 -2.57933 1.6217
upperneck 41.8369 -0.640212 -2.85251
head 17.2552 0.339604 -1.48065
rclavicle -2.38542e-014 -4.85035e-014
rhumerus -8.08409 11.7183 -101.051
rradius 31.2393
rwrist -43.0231
rhand -26.861 -15.7515
rfingers 7.12502
rthumb -0.285861 -45.7311
lclavicle -2.38542e-014 -4.85035e-014
lhumerus -12.0389 -45.7173 107.967
lradius 36.616
lwrist 52.2845
lhand -7.47372 59.0429
lfingers 7.12502
lthumb -161.585 268.191
rfemur -30.3631 -1.61533 16.1264
rtibia 26.1188
rfoot -6.83653 -7.23646
rtoes -0.531168
lfemur -29.8564 3.40323 -8.4085
ltibia 24.9044
lfoot -8.89009 -2.04865
ltoes -19.1758
274
root -11.5589 17.9787 6.64584 -99.7424 85.5711 -116.748
lowerback 4.50089 2.04313 -1.39574
upperback 4.01946 2.80231 4.5848
thorax 1.32798 1.38246 5.43475
lowerneck -11.7252 -2.59918 1.55244
upperneck 41.8443 -0.654329 -2.83194
head 17.2524 0.326766 -1.46064
rclavicle 4.77083e-015 3.49861e-014
rhumerus -8.11578 11.7156 -101.009
rradius 31.2569
rwrist -43.0023
rhand -26.8798 -15.7981
rfingers 7.12502
rthumb -0.304011 -45.7776
lclavicle 4.77083e-015 3.49861e-014
lhumerus -12.0922 -45.6498 108.044
lradius 36.652
lwrist 52.2766
lhand -7.59889 59.1947
lfingers 7.12502
lthumb -161.705 268.354
rfemur -30.3702 -1.62352 16.0949
rtibia 26.1093
rfoot -6.86177 -7.24107
rtoes -0.449122
lfemur -29.8624 3.39446 -8.43646
ltibia 24.889
lfoot -8.85101 -2.05211
ltoes -18.8297
